<mxfile host="app.diagrams.net" modified="2023-04-05T05:40:32.836Z" agent="Mozilla/5.0 (Windows NT 10.0; Win64; x64) AppleWebKit/537.36 (KHTML, like Gecko) Chrome/111.0.0.0 Safari/537.36" etag="xQ3-Pcj2RqThXQROLrm0" version="21.1.4" type="device">
  <diagram name="Page-1" id="IuGsxJ4qy-mnPmuuzpRT">
    <mxGraphModel dx="1020" dy="846" grid="1" gridSize="10" guides="1" tooltips="1" connect="1" arrows="1" fold="1" page="1" pageScale="1" pageWidth="850" pageHeight="1100" math="0" shadow="0">
      <root>
        <mxCell id="0" />
        <mxCell id="1" parent="0" />
        <mxCell id="AEbTJ9ArmoJ4IYRV0TFD-1" value="" style="endArrow=none;html=1;rounded=0;strokeWidth=4;" edge="1" parent="1" source="AEbTJ9ArmoJ4IYRV0TFD-29">
          <mxGeometry width="50" height="50" relative="1" as="geometry">
            <mxPoint x="440" y="490" as="sourcePoint" />
            <mxPoint x="440" y="220" as="targetPoint" />
          </mxGeometry>
        </mxCell>
        <mxCell id="AEbTJ9ArmoJ4IYRV0TFD-4" value="&lt;b&gt;&lt;font style=&quot;font-size: 18px;&quot;&gt;Location&lt;/font&gt;&lt;/b&gt;" style="text;html=1;strokeColor=none;fillColor=none;align=center;verticalAlign=middle;whiteSpace=wrap;rounded=0;" vertex="1" parent="1">
          <mxGeometry x="190" y="10" width="60" height="30" as="geometry" />
        </mxCell>
        <mxCell id="AEbTJ9ArmoJ4IYRV0TFD-5" value="&lt;b&gt;&lt;font style=&quot;font-size: 18px;&quot;&gt;Crime&lt;/font&gt;&lt;/b&gt;" style="text;html=1;strokeColor=none;fillColor=none;align=center;verticalAlign=middle;whiteSpace=wrap;rounded=0;" vertex="1" parent="1">
          <mxGeometry x="660" y="840" width="60" height="30" as="geometry" />
        </mxCell>
        <mxCell id="AEbTJ9ArmoJ4IYRV0TFD-6" value="&lt;span style=&quot;font-size: 18px;&quot;&gt;&lt;b&gt;Time&lt;/b&gt;&lt;/span&gt;" style="text;html=1;strokeColor=none;fillColor=none;align=center;verticalAlign=middle;whiteSpace=wrap;rounded=0;" vertex="1" parent="1">
          <mxGeometry x="170" y="840" width="60" height="30" as="geometry" />
        </mxCell>
        <mxCell id="AEbTJ9ArmoJ4IYRV0TFD-8" value="" style="endArrow=none;html=1;rounded=0;strokeWidth=4;" edge="1" parent="1" target="AEbTJ9ArmoJ4IYRV0TFD-7">
          <mxGeometry width="50" height="50" relative="1" as="geometry">
            <mxPoint x="440" y="600" as="sourcePoint" />
            <mxPoint x="440" y="220" as="targetPoint" />
          </mxGeometry>
        </mxCell>
        <mxCell id="AEbTJ9ArmoJ4IYRV0TFD-7" value="" style="ellipse;whiteSpace=wrap;html=1;fillColor=#66B2FF;" vertex="1" parent="1">
          <mxGeometry x="430" y="530" width="20" height="20" as="geometry" />
        </mxCell>
        <mxCell id="AEbTJ9ArmoJ4IYRV0TFD-10" value="" style="endArrow=none;html=1;rounded=0;strokeWidth=4;" edge="1" parent="1" source="AEbTJ9ArmoJ4IYRV0TFD-7">
          <mxGeometry width="50" height="50" relative="1" as="geometry">
            <mxPoint x="440" y="530" as="sourcePoint" />
            <mxPoint x="440" y="510" as="targetPoint" />
          </mxGeometry>
        </mxCell>
        <mxCell id="AEbTJ9ArmoJ4IYRV0TFD-11" value="" style="ellipse;whiteSpace=wrap;html=1;fillColor=#66B2FF;" vertex="1" parent="1">
          <mxGeometry x="430" y="490" width="20" height="20" as="geometry" />
        </mxCell>
        <mxCell id="AEbTJ9ArmoJ4IYRV0TFD-13" value="" style="endArrow=none;html=1;rounded=0;strokeWidth=4;" edge="1" parent="1" target="AEbTJ9ArmoJ4IYRV0TFD-12">
          <mxGeometry width="50" height="50" relative="1" as="geometry">
            <mxPoint x="440" y="490" as="sourcePoint" />
            <mxPoint x="440" y="220" as="targetPoint" />
          </mxGeometry>
        </mxCell>
        <mxCell id="AEbTJ9ArmoJ4IYRV0TFD-12" value="" style="ellipse;whiteSpace=wrap;html=1;fillColor=#66B2FF;" vertex="1" parent="1">
          <mxGeometry x="430" y="450" width="20" height="20" as="geometry" />
        </mxCell>
        <mxCell id="AEbTJ9ArmoJ4IYRV0TFD-20" value="" style="endArrow=none;html=1;rounded=0;strokeWidth=4;" edge="1" parent="1" source="AEbTJ9ArmoJ4IYRV0TFD-12" target="AEbTJ9ArmoJ4IYRV0TFD-19">
          <mxGeometry width="50" height="50" relative="1" as="geometry">
            <mxPoint x="440" y="450" as="sourcePoint" />
            <mxPoint x="440" y="220" as="targetPoint" />
          </mxGeometry>
        </mxCell>
        <mxCell id="AEbTJ9ArmoJ4IYRV0TFD-19" value="" style="ellipse;whiteSpace=wrap;html=1;fillColor=#66B2FF;" vertex="1" parent="1">
          <mxGeometry x="430" y="410" width="20" height="20" as="geometry" />
        </mxCell>
        <mxCell id="AEbTJ9ArmoJ4IYRV0TFD-22" value="" style="endArrow=none;html=1;rounded=0;strokeWidth=4;" edge="1" parent="1" source="AEbTJ9ArmoJ4IYRV0TFD-19" target="AEbTJ9ArmoJ4IYRV0TFD-21">
          <mxGeometry width="50" height="50" relative="1" as="geometry">
            <mxPoint x="440" y="410" as="sourcePoint" />
            <mxPoint x="440" y="220" as="targetPoint" />
          </mxGeometry>
        </mxCell>
        <mxCell id="AEbTJ9ArmoJ4IYRV0TFD-21" value="" style="ellipse;whiteSpace=wrap;html=1;fillColor=#66B2FF;" vertex="1" parent="1">
          <mxGeometry x="430" y="370" width="20" height="20" as="geometry" />
        </mxCell>
        <mxCell id="AEbTJ9ArmoJ4IYRV0TFD-24" value="" style="endArrow=none;html=1;rounded=0;strokeWidth=4;" edge="1" parent="1" source="AEbTJ9ArmoJ4IYRV0TFD-21" target="AEbTJ9ArmoJ4IYRV0TFD-23">
          <mxGeometry width="50" height="50" relative="1" as="geometry">
            <mxPoint x="440" y="370" as="sourcePoint" />
            <mxPoint x="440" y="220" as="targetPoint" />
          </mxGeometry>
        </mxCell>
        <mxCell id="AEbTJ9ArmoJ4IYRV0TFD-23" value="" style="ellipse;whiteSpace=wrap;html=1;fillColor=#66B2FF;" vertex="1" parent="1">
          <mxGeometry x="430" y="330" width="20" height="20" as="geometry" />
        </mxCell>
        <mxCell id="AEbTJ9ArmoJ4IYRV0TFD-26" value="" style="endArrow=none;html=1;rounded=0;strokeWidth=4;" edge="1" parent="1" source="AEbTJ9ArmoJ4IYRV0TFD-23" target="AEbTJ9ArmoJ4IYRV0TFD-25">
          <mxGeometry width="50" height="50" relative="1" as="geometry">
            <mxPoint x="440" y="330" as="sourcePoint" />
            <mxPoint x="440" y="220" as="targetPoint" />
          </mxGeometry>
        </mxCell>
        <mxCell id="AEbTJ9ArmoJ4IYRV0TFD-25" value="" style="ellipse;whiteSpace=wrap;html=1;fillColor=#66B2FF;" vertex="1" parent="1">
          <mxGeometry x="430" y="290" width="20" height="20" as="geometry" />
        </mxCell>
        <mxCell id="AEbTJ9ArmoJ4IYRV0TFD-28" value="" style="endArrow=none;html=1;rounded=0;strokeWidth=4;" edge="1" parent="1" source="AEbTJ9ArmoJ4IYRV0TFD-25" target="AEbTJ9ArmoJ4IYRV0TFD-27">
          <mxGeometry width="50" height="50" relative="1" as="geometry">
            <mxPoint x="440" y="290" as="sourcePoint" />
            <mxPoint x="440" y="220" as="targetPoint" />
          </mxGeometry>
        </mxCell>
        <mxCell id="AEbTJ9ArmoJ4IYRV0TFD-27" value="" style="ellipse;whiteSpace=wrap;html=1;fillColor=#66B2FF;" vertex="1" parent="1">
          <mxGeometry x="430" y="250" width="20" height="20" as="geometry" />
        </mxCell>
        <mxCell id="AEbTJ9ArmoJ4IYRV0TFD-30" value="" style="endArrow=none;html=1;rounded=0;strokeWidth=4;" edge="1" parent="1" source="AEbTJ9ArmoJ4IYRV0TFD-27" target="AEbTJ9ArmoJ4IYRV0TFD-29">
          <mxGeometry width="50" height="50" relative="1" as="geometry">
            <mxPoint x="440" y="250" as="sourcePoint" />
            <mxPoint x="440" y="220" as="targetPoint" />
          </mxGeometry>
        </mxCell>
        <mxCell id="AEbTJ9ArmoJ4IYRV0TFD-29" value="" style="ellipse;whiteSpace=wrap;html=1;fillColor=#66B2FF;" vertex="1" parent="1">
          <mxGeometry x="430" y="210" width="20" height="20" as="geometry" />
        </mxCell>
        <mxCell id="AEbTJ9ArmoJ4IYRV0TFD-35" value="Lat , Long" style="text;html=1;align=center;verticalAlign=middle;resizable=0;points=[];autosize=1;strokeColor=none;fillColor=none;" vertex="1" parent="1">
          <mxGeometry x="460" y="525" width="80" height="30" as="geometry" />
        </mxCell>
        <mxCell id="AEbTJ9ArmoJ4IYRV0TFD-36" value="Address" style="text;html=1;align=center;verticalAlign=middle;resizable=0;points=[];autosize=1;strokeColor=none;fillColor=none;" vertex="1" parent="1">
          <mxGeometry x="350" y="485" width="70" height="30" as="geometry" />
        </mxCell>
        <mxCell id="AEbTJ9ArmoJ4IYRV0TFD-37" value="Address Type" style="text;html=1;align=center;verticalAlign=middle;resizable=0;points=[];autosize=1;strokeColor=none;fillColor=none;" vertex="1" parent="1">
          <mxGeometry x="460" y="445" width="100" height="30" as="geometry" />
        </mxCell>
        <mxCell id="AEbTJ9ArmoJ4IYRV0TFD-38" value="Patrol Beat" style="text;html=1;align=center;verticalAlign=middle;resizable=0;points=[];autosize=1;strokeColor=none;fillColor=none;" vertex="1" parent="1">
          <mxGeometry x="340" y="405" width="80" height="30" as="geometry" />
        </mxCell>
        <mxCell id="AEbTJ9ArmoJ4IYRV0TFD-39" value="Zip Code" style="text;html=1;align=center;verticalAlign=middle;resizable=0;points=[];autosize=1;strokeColor=none;fillColor=none;" vertex="1" parent="1">
          <mxGeometry x="460" y="405" width="70" height="30" as="geometry" />
        </mxCell>
        <mxCell id="AEbTJ9ArmoJ4IYRV0TFD-40" value="Neighbourhood" style="text;html=1;align=center;verticalAlign=middle;resizable=0;points=[];autosize=1;strokeColor=none;fillColor=none;" vertex="1" parent="1">
          <mxGeometry x="460" y="365" width="110" height="30" as="geometry" />
        </mxCell>
        <mxCell id="AEbTJ9ArmoJ4IYRV0TFD-41" value="NPU" style="text;html=1;align=center;verticalAlign=middle;resizable=0;points=[];autosize=1;strokeColor=none;fillColor=none;" vertex="1" parent="1">
          <mxGeometry x="370" y="325" width="50" height="30" as="geometry" />
        </mxCell>
        <mxCell id="AEbTJ9ArmoJ4IYRV0TFD-42" value="City" style="text;html=1;align=center;verticalAlign=middle;resizable=0;points=[];autosize=1;strokeColor=none;fillColor=none;" vertex="1" parent="1">
          <mxGeometry x="470" y="285" width="40" height="30" as="geometry" />
        </mxCell>
        <mxCell id="AEbTJ9ArmoJ4IYRV0TFD-43" value="County" style="text;html=1;align=center;verticalAlign=middle;resizable=0;points=[];autosize=1;strokeColor=none;fillColor=none;" vertex="1" parent="1">
          <mxGeometry x="360" y="245" width="60" height="30" as="geometry" />
        </mxCell>
        <mxCell id="AEbTJ9ArmoJ4IYRV0TFD-44" value="State" style="text;html=1;align=center;verticalAlign=middle;resizable=0;points=[];autosize=1;strokeColor=none;fillColor=none;" vertex="1" parent="1">
          <mxGeometry x="475" y="205" width="50" height="30" as="geometry" />
        </mxCell>
        <mxCell id="AEbTJ9ArmoJ4IYRV0TFD-45" value="" style="endArrow=none;html=1;rounded=0;strokeWidth=4;" edge="1" parent="1">
          <mxGeometry width="50" height="50" relative="1" as="geometry">
            <mxPoint x="440" y="210" as="sourcePoint" />
            <mxPoint x="440" y="190" as="targetPoint" />
          </mxGeometry>
        </mxCell>
        <mxCell id="AEbTJ9ArmoJ4IYRV0TFD-46" value="" style="ellipse;whiteSpace=wrap;html=1;fillColor=#66B2FF;" vertex="1" parent="1">
          <mxGeometry x="430" y="170" width="20" height="20" as="geometry" />
        </mxCell>
        <mxCell id="AEbTJ9ArmoJ4IYRV0TFD-50" value="" style="endArrow=none;html=1;rounded=0;strokeWidth=4;entryX=0.5;entryY=1;entryDx=0;entryDy=0;" edge="1" parent="1" target="AEbTJ9ArmoJ4IYRV0TFD-48">
          <mxGeometry width="50" height="50" relative="1" as="geometry">
            <mxPoint x="439.5" y="170" as="sourcePoint" />
            <mxPoint x="440" y="150" as="targetPoint" />
          </mxGeometry>
        </mxCell>
        <mxCell id="AEbTJ9ArmoJ4IYRV0TFD-53" value="Country" style="text;html=1;align=center;verticalAlign=middle;resizable=0;points=[];autosize=1;strokeColor=none;fillColor=none;" vertex="1" parent="1">
          <mxGeometry x="355" y="165" width="70" height="30" as="geometry" />
        </mxCell>
        <mxCell id="AEbTJ9ArmoJ4IYRV0TFD-55" value="" style="endArrow=none;html=1;rounded=0;strokeWidth=4;" edge="1" parent="1" source="AEbTJ9ArmoJ4IYRV0TFD-48">
          <mxGeometry width="50" height="50" relative="1" as="geometry">
            <mxPoint x="440" y="130" as="sourcePoint" />
            <mxPoint x="440" y="80" as="targetPoint" />
          </mxGeometry>
        </mxCell>
        <mxCell id="AEbTJ9ArmoJ4IYRV0TFD-65" value="" style="endArrow=none;html=1;rounded=0;strokeWidth=4;" edge="1" parent="1" source="AEbTJ9ArmoJ4IYRV0TFD-68">
          <mxGeometry width="50" height="50" relative="1" as="geometry">
            <mxPoint x="390" y="650" as="sourcePoint" />
            <mxPoint x="440" y="600" as="targetPoint" />
            <Array as="points" />
          </mxGeometry>
        </mxCell>
        <mxCell id="AEbTJ9ArmoJ4IYRV0TFD-66" value="" style="endArrow=none;html=1;rounded=0;strokeWidth=4;" edge="1" parent="1" target="AEbTJ9ArmoJ4IYRV0TFD-48">
          <mxGeometry width="50" height="50" relative="1" as="geometry">
            <mxPoint x="440" y="130" as="sourcePoint" />
            <mxPoint x="440" y="80" as="targetPoint" />
          </mxGeometry>
        </mxCell>
        <mxCell id="AEbTJ9ArmoJ4IYRV0TFD-48" value="" style="ellipse;whiteSpace=wrap;html=1;fillColor=#66B2FF;" vertex="1" parent="1">
          <mxGeometry x="430" y="110" width="20" height="20" as="geometry" />
        </mxCell>
        <mxCell id="AEbTJ9ArmoJ4IYRV0TFD-67" value="" style="endArrow=none;html=1;rounded=0;strokeWidth=4;" edge="1" parent="1" source="AEbTJ9ArmoJ4IYRV0TFD-86">
          <mxGeometry width="50" height="50" relative="1" as="geometry">
            <mxPoint x="630" y="790" as="sourcePoint" />
            <mxPoint x="680" y="840" as="targetPoint" />
            <Array as="points">
              <mxPoint x="440" y="600" />
            </Array>
          </mxGeometry>
        </mxCell>
        <mxCell id="AEbTJ9ArmoJ4IYRV0TFD-69" value="" style="endArrow=none;html=1;rounded=0;strokeWidth=4;" edge="1" parent="1" target="AEbTJ9ArmoJ4IYRV0TFD-68">
          <mxGeometry width="50" height="50" relative="1" as="geometry">
            <mxPoint x="287.07106781186553" y="752.9289321881345" as="sourcePoint" />
            <mxPoint x="440" y="600" as="targetPoint" />
            <Array as="points" />
          </mxGeometry>
        </mxCell>
        <mxCell id="AEbTJ9ArmoJ4IYRV0TFD-71" value="" style="endArrow=none;html=1;rounded=0;strokeWidth=4;" edge="1" parent="1" source="AEbTJ9ArmoJ4IYRV0TFD-72" target="AEbTJ9ArmoJ4IYRV0TFD-70">
          <mxGeometry width="50" height="50" relative="1" as="geometry">
            <mxPoint x="390" y="650" as="sourcePoint" />
            <mxPoint x="393" y="647" as="targetPoint" />
            <Array as="points" />
          </mxGeometry>
        </mxCell>
        <mxCell id="AEbTJ9ArmoJ4IYRV0TFD-70" value="" style="ellipse;whiteSpace=wrap;html=1;fillColor=#66B2FF;" vertex="1" parent="1">
          <mxGeometry x="270" y="750" width="20" height="20" as="geometry" />
        </mxCell>
        <mxCell id="AEbTJ9ArmoJ4IYRV0TFD-74" value="" style="endArrow=none;html=1;rounded=0;strokeWidth=4;" edge="1" parent="1" source="AEbTJ9ArmoJ4IYRV0TFD-75">
          <mxGeometry width="50" height="50" relative="1" as="geometry">
            <mxPoint x="313" y="727" as="sourcePoint" />
            <mxPoint x="272.92893218813447" y="767.0710678118655" as="targetPoint" />
            <Array as="points">
              <mxPoint x="200" y="840" />
            </Array>
          </mxGeometry>
        </mxCell>
        <mxCell id="AEbTJ9ArmoJ4IYRV0TFD-76" value="" style="endArrow=none;html=1;rounded=0;strokeWidth=4;" edge="1" parent="1" source="AEbTJ9ArmoJ4IYRV0TFD-70" target="AEbTJ9ArmoJ4IYRV0TFD-75">
          <mxGeometry width="50" height="50" relative="1" as="geometry">
            <mxPoint x="313" y="727" as="sourcePoint" />
            <mxPoint x="273" y="767" as="targetPoint" />
            <Array as="points" />
          </mxGeometry>
        </mxCell>
        <mxCell id="AEbTJ9ArmoJ4IYRV0TFD-75" value="" style="ellipse;whiteSpace=wrap;html=1;fillColor=#66B2FF;" vertex="1" parent="1">
          <mxGeometry x="230" y="790" width="20" height="20" as="geometry" />
        </mxCell>
        <mxCell id="AEbTJ9ArmoJ4IYRV0TFD-78" value="" style="endArrow=none;html=1;rounded=0;strokeWidth=4;" edge="1" parent="1" source="AEbTJ9ArmoJ4IYRV0TFD-68" target="AEbTJ9ArmoJ4IYRV0TFD-72">
          <mxGeometry width="50" height="50" relative="1" as="geometry">
            <mxPoint x="390" y="650" as="sourcePoint" />
            <mxPoint x="287" y="753" as="targetPoint" />
            <Array as="points" />
          </mxGeometry>
        </mxCell>
        <mxCell id="AEbTJ9ArmoJ4IYRV0TFD-72" value="" style="ellipse;whiteSpace=wrap;html=1;fillColor=#66B2FF;" vertex="1" parent="1">
          <mxGeometry x="310" y="710" width="20" height="20" as="geometry" />
        </mxCell>
        <mxCell id="AEbTJ9ArmoJ4IYRV0TFD-79" value="" style="endArrow=none;html=1;rounded=0;strokeWidth=4;" edge="1" parent="1" target="AEbTJ9ArmoJ4IYRV0TFD-68">
          <mxGeometry width="50" height="50" relative="1" as="geometry">
            <mxPoint x="390" y="650" as="sourcePoint" />
            <mxPoint x="327" y="713" as="targetPoint" />
            <Array as="points" />
          </mxGeometry>
        </mxCell>
        <mxCell id="AEbTJ9ArmoJ4IYRV0TFD-68" value="" style="ellipse;whiteSpace=wrap;html=1;fillColor=#66B2FF;" vertex="1" parent="1">
          <mxGeometry x="350" y="670" width="20" height="20" as="geometry" />
        </mxCell>
        <mxCell id="AEbTJ9ArmoJ4IYRV0TFD-81" value="" style="endArrow=none;html=1;rounded=0;strokeWidth=4;" edge="1" parent="1" source="AEbTJ9ArmoJ4IYRV0TFD-82" target="AEbTJ9ArmoJ4IYRV0TFD-80">
          <mxGeometry width="50" height="50" relative="1" as="geometry">
            <mxPoint x="630" y="790" as="sourcePoint" />
            <mxPoint x="680" y="840" as="targetPoint" />
            <Array as="points" />
          </mxGeometry>
        </mxCell>
        <mxCell id="AEbTJ9ArmoJ4IYRV0TFD-80" value="" style="ellipse;whiteSpace=wrap;html=1;fillColor=#66B2FF;" vertex="1" parent="1">
          <mxGeometry x="510" y="670" width="20" height="20" as="geometry" />
        </mxCell>
        <mxCell id="AEbTJ9ArmoJ4IYRV0TFD-83" value="" style="endArrow=none;html=1;rounded=0;strokeWidth=4;" edge="1" parent="1" source="AEbTJ9ArmoJ4IYRV0TFD-84" target="AEbTJ9ArmoJ4IYRV0TFD-82">
          <mxGeometry width="50" height="50" relative="1" as="geometry">
            <mxPoint x="630" y="790" as="sourcePoint" />
            <mxPoint x="527" y="687" as="targetPoint" />
            <Array as="points" />
          </mxGeometry>
        </mxCell>
        <mxCell id="AEbTJ9ArmoJ4IYRV0TFD-85" value="" style="endArrow=none;html=1;rounded=0;strokeWidth=4;" edge="1" parent="1" target="AEbTJ9ArmoJ4IYRV0TFD-84">
          <mxGeometry width="50" height="50" relative="1" as="geometry">
            <mxPoint x="630" y="790" as="sourcePoint" />
            <mxPoint x="567" y="727" as="targetPoint" />
            <Array as="points" />
          </mxGeometry>
        </mxCell>
        <mxCell id="AEbTJ9ArmoJ4IYRV0TFD-87" value="" style="endArrow=none;html=1;rounded=0;strokeWidth=4;" edge="1" parent="1" source="AEbTJ9ArmoJ4IYRV0TFD-80" target="AEbTJ9ArmoJ4IYRV0TFD-86">
          <mxGeometry width="50" height="50" relative="1" as="geometry">
            <mxPoint x="513" y="673" as="sourcePoint" />
            <mxPoint x="680" y="840" as="targetPoint" />
            <Array as="points" />
          </mxGeometry>
        </mxCell>
        <mxCell id="AEbTJ9ArmoJ4IYRV0TFD-86" value="" style="ellipse;whiteSpace=wrap;html=1;fillColor=#66B2FF;" vertex="1" parent="1">
          <mxGeometry x="630" y="790" width="20" height="20" as="geometry" />
        </mxCell>
        <mxCell id="AEbTJ9ArmoJ4IYRV0TFD-82" value="" style="ellipse;whiteSpace=wrap;html=1;fillColor=#66B2FF;" vertex="1" parent="1">
          <mxGeometry x="550" y="710" width="20" height="20" as="geometry" />
        </mxCell>
        <mxCell id="AEbTJ9ArmoJ4IYRV0TFD-84" value="" style="ellipse;whiteSpace=wrap;html=1;fillColor=#66B2FF;" vertex="1" parent="1">
          <mxGeometry x="590" y="750" width="20" height="20" as="geometry" />
        </mxCell>
        <mxCell id="AEbTJ9ArmoJ4IYRV0TFD-88" value="ALL" style="text;html=1;align=center;verticalAlign=middle;resizable=0;points=[];autosize=1;strokeColor=none;fillColor=none;" vertex="1" parent="1">
          <mxGeometry x="475" y="105" width="40" height="30" as="geometry" />
        </mxCell>
        <mxCell id="AEbTJ9ArmoJ4IYRV0TFD-89" value="Number" style="text;html=1;align=center;verticalAlign=middle;resizable=0;points=[];autosize=1;strokeColor=none;fillColor=none;" vertex="1" parent="1">
          <mxGeometry x="565" y="665" width="70" height="30" as="geometry" />
        </mxCell>
        <mxCell id="AEbTJ9ArmoJ4IYRV0TFD-90" value="Crime" style="text;html=1;align=center;verticalAlign=middle;resizable=0;points=[];autosize=1;strokeColor=none;fillColor=none;" vertex="1" parent="1">
          <mxGeometry x="590" y="705" width="60" height="30" as="geometry" />
        </mxCell>
        <mxCell id="AEbTJ9ArmoJ4IYRV0TFD-91" value="Crime Type" style="text;html=1;align=center;verticalAlign=middle;resizable=0;points=[];autosize=1;strokeColor=none;fillColor=none;" vertex="1" parent="1">
          <mxGeometry x="630" y="745" width="80" height="30" as="geometry" />
        </mxCell>
        <mxCell id="AEbTJ9ArmoJ4IYRV0TFD-92" value="ALL" style="text;html=1;align=center;verticalAlign=middle;resizable=0;points=[];autosize=1;strokeColor=none;fillColor=none;" vertex="1" parent="1">
          <mxGeometry x="680" y="785" width="40" height="30" as="geometry" />
        </mxCell>
        <mxCell id="AEbTJ9ArmoJ4IYRV0TFD-93" value="Day" style="text;html=1;align=center;verticalAlign=middle;resizable=0;points=[];autosize=1;strokeColor=none;fillColor=none;" vertex="1" parent="1">
          <mxGeometry x="270" y="665" width="40" height="30" as="geometry" />
        </mxCell>
        <mxCell id="AEbTJ9ArmoJ4IYRV0TFD-94" value="Month" style="text;html=1;align=center;verticalAlign=middle;resizable=0;points=[];autosize=1;strokeColor=none;fillColor=none;" vertex="1" parent="1">
          <mxGeometry x="230" y="705" width="60" height="30" as="geometry" />
        </mxCell>
        <mxCell id="AEbTJ9ArmoJ4IYRV0TFD-95" value="Year" style="text;html=1;align=center;verticalAlign=middle;resizable=0;points=[];autosize=1;strokeColor=none;fillColor=none;" vertex="1" parent="1">
          <mxGeometry x="200" y="745" width="50" height="30" as="geometry" />
        </mxCell>
        <mxCell id="AEbTJ9ArmoJ4IYRV0TFD-96" value="ALL" style="text;html=1;align=center;verticalAlign=middle;resizable=0;points=[];autosize=1;strokeColor=none;fillColor=none;" vertex="1" parent="1">
          <mxGeometry x="170" y="785" width="40" height="30" as="geometry" />
        </mxCell>
      </root>
    </mxGraphModel>
  </diagram>
</mxfile>
